<svg id="Layer_1" data-name="Layer 1" xmlns="http://www.w3.org/2000/svg" viewBox="0 0 169.37 35.78"><defs><style>.cls-1,.cls-14,.cls-3,.cls-4,.cls-5{fill:none;stroke-width:2px;}.cls-1,.cls-3,.cls-4,.cls-5{stroke:#000;}.cls-1,.cls-14,.cls-5{stroke-miterlimit:10;}.cls-2{fill:#ff6b6b;}.cls-3,.cls-5{stroke-linecap:round;}.cls-3,.cls-4{stroke-linejoin:round;}.cls-6{fill:#b2afae;}.cls-7{fill:#948e8d;}.cls-8{fill:#746c6b;}.cls-9{fill:#554a49;}.cls-10{fill:#363133;}.cls-11{fill:#cdcbca;}.cls-12{fill:#dfdedc;}.cls-13{fill:#4ecdc4;}.cls-14{stroke:#4ecdc4;}</style></defs><title>logo</title><path d="M9.7,34.92a13.55,13.55,0,0,1,4-9.83A13.15,13.15,0,0,1,23.48,21,20.82,20.82,0,0,1,31,22.82a59.09,59.09,0,0,1,8.92,4.58q4.42,2.75,6.53,4.14t3.38,2.35a1.36,1.36,0,0,1,0,2.07q-1.27,1-3.34,2.39T40,42.56a54.92,54.92,0,0,1-8.92,4.62A21.25,21.25,0,0,1,23.48,49a13.09,13.09,0,0,1-9.75-4.14A13.78,13.78,0,0,1,9.7,34.92Zm37.18,0q-3.19-2.23-6.57-4.38A76.69,76.69,0,0,0,31.72,26q-5.22-2.43-8.24-2.43a10.7,10.7,0,0,0-8,3.34,11.09,11.09,0,0,0-3.26,8,11.33,11.33,0,0,0,3.26,8.16,10.64,10.64,0,0,0,8,3.38q3.11,0,8.32-2.43a72.47,72.47,0,0,0,8.6-4.62Q43.78,37.23,46.89,34.92Z" transform="translate(-9.7 -13.25)"/><line class="cls-1" x1="37.18" y1="21.71" x2="50.88" y2="21.79"/><circle class="cls-2" cx="50.88" cy="21.75" r="4.19"/><line class="cls-3" x1="14.48" y1="34.75" x2="14.48" y2="18.09"/><line class="cls-4" x1="26.38" y1="30.07" x2="26.38" y2="13.42"/><path class="cls-1" d="M12.29,27.23c9.61,5.46,13.31,5.52,23.79,0" transform="translate(-9.7 -13.25)"/><path class="cls-5" d="M27.5,35.89a30,30,0,0,0,5.28-2" transform="translate(-9.7 -13.25)"/><path class="cls-5" d="M15.64,34a24.61,24.61,0,0,0,5,1.92" transform="translate(-9.7 -13.25)"/><path class="cls-5" d="M27.78,40.83a31,31,0,0,0,5-1.91" transform="translate(-9.7 -13.25)"/><path class="cls-5" d="M15.62,39.05a24.73,24.73,0,0,0,5,1.92" transform="translate(-9.7 -13.25)"/><polyline class="cls-6" points="141.31 5.69 139.48 4.35 137.66 5.69 138.38 3.51 136.52 2.13 138.79 2.13 139.48 0 140.15 2.13 142.43 2.13 140.6 3.51 141.31 5.69"/><polyline class="cls-7" points="147.84 8.32 148.55 6.13 146.69 4.74 148.97 4.75 149.65 2.62 150.33 4.75 152.61 4.74 150.77 6.13 151.5 8.3 149.66 6.96 147.84 8.32"/><polyline class="cls-8" points="154.37 15.1 155.08 12.91 153.23 11.52 155.5 11.53 156.18 9.4 156.86 11.53 159.13 11.52 157.31 12.9 158.02 15.09 156.19 13.74 154.37 15.1"/><polyline class="cls-9" points="159.92 21.52 162.2 21.51 160.37 22.9 161.09 25.08 159.26 23.74 157.43 25.09 158.15 22.91 156.29 21.51 158.56 21.53 159.24 19.39 159.92 21.52"/><polyline class="cls-10" points="155.18 34.87 155.9 32.68 154.04 31.28 156.31 31.3 156.99 29.17 157.67 31.3 159.95 31.29 158.12 32.67 158.84 34.85 157.01 33.51 155.18 34.87"/><polyline class="cls-11" points="131.06 8.32 129.24 6.96 127.4 8.3 128.13 6.13 126.29 4.74 128.57 4.75 129.25 2.62 129.93 4.75 132.21 4.74 130.35 6.13 131.06 8.32"/><polyline class="cls-12" points="124.53 15.1 122.71 13.74 120.87 15.09 121.59 12.9 119.76 11.52 122.04 11.53 122.72 9.4 123.4 11.53 125.68 11.52 123.82 12.91 124.53 15.1"/><path class="cls-13" d="M101.4,34.81a1.8,1.8,0,0,0,1.54-.78,3.36,3.36,0,0,0,.58-2,3.45,3.45,0,0,0-.52-2,1.83,1.83,0,0,0-1.6-.87H97.65v5.65h3.75Zm3,7.38q-2-3.74-2.46-4.44Q100.91,36.2,100,36.2H97.65v6H96.17V27.78h5.23a3.21,3.21,0,0,1,2.68,1.32,5,5,0,0,1,.06,5.72A3.29,3.29,0,0,1,102.51,36a44.65,44.65,0,0,1,3.6,6.17h-1.67Z" transform="translate(-9.7 -13.25)"/><polygon class="cls-13" points="97.78 14.54 105.71 14.54 105.71 15.92 99.26 15.92 99.26 20.99 104.7 20.99 104.7 22.38 99.26 22.38 99.26 27.55 105.71 27.55 105.71 28.94 97.78 28.94 97.78 14.54 97.78 14.54"/><path class="cls-13" d="M121.4,33.95a7.8,7.8,0,0,1,3.72.83,3.66,3.66,0,0,1,1.41,3.38A3.84,3.84,0,0,1,125,41.32a5.43,5.43,0,0,1-3.44,1.06,6.19,6.19,0,0,1-3.29-.87,3.26,3.26,0,0,1-1.73-2.46l1.48-.17a2,2,0,0,0,1.21,1.47,5,5,0,0,0,2.32.53,4.16,4.16,0,0,0,2.38-.63A2.46,2.46,0,0,0,125,38.14a2.29,2.29,0,0,0-1-2.26,6.85,6.85,0,0,0-2.6-.44q-4.6-.2-4.59-4a3.56,3.56,0,0,1,1.44-2.9,5.1,5.1,0,0,1,3.15-.95,6.21,6.21,0,0,1,2.8.62A3.33,3.33,0,0,1,126,30.1l-1.4.51a2,2,0,0,0-1.17-1.07,4.73,4.73,0,0,0-2-.41,3.74,3.74,0,0,0-2.1.55,2.16,2.16,0,0,0-1,1.84,2.1,2.1,0,0,0,.75,1.8,4.3,4.3,0,0,0,2.36.63h0Z" transform="translate(-9.7 -13.25)"/><path class="cls-13" d="M134.57,31.34h1.48v8a2.87,2.87,0,0,1-2.85,2.85h-1.69a2.85,2.85,0,0,1-2.84-2.85v-8h1.48v8a1.36,1.36,0,0,0,1.36,1.37h1.69a1.37,1.37,0,0,0,1.37-1.37v-8h0Z" transform="translate(-9.7 -13.25)"/><polygon class="cls-13" points="139.15 28.94 139.15 19.02 135.37 28.94 134.35 28.94 130.56 19.02 130.56 28.94 129.08 28.94 129.08 14.54 130.33 14.54 134.86 26.34 139.38 14.54 140.63 14.54 140.63 28.94 139.15 28.94 139.15 28.94"/><polygon class="cls-13" points="143.37 14.54 151.3 14.54 151.3 15.92 144.85 15.92 144.85 20.99 150.29 20.99 150.29 22.38 144.85 22.38 144.85 27.55 151.3 27.55 151.3 28.94 143.37 28.94 143.37 14.54 143.37 14.54"/><polyline class="cls-14" points="66.19 8.78 168.37 8.78 168.37 34.78 66.19 34.78"/><line class="cls-14" x1="78.19" y1="34.78" x2="78.19" y2="8.78"/></svg>