<svg id="Layer_1" data-name="Layer 1" xmlns="http://www.w3.org/2000/svg" viewBox="0 0 200 70"><defs><style>.cls-1{fill:#fff;}.cls-15,.cls-2,.cls-4,.cls-5,.cls-6{fill:none;stroke-width:2px;}.cls-2,.cls-4,.cls-5,.cls-6{stroke:#000;}.cls-15,.cls-2,.cls-6{stroke-miterlimit:10;}.cls-3{fill:#ff6b6b;}.cls-4,.cls-6{stroke-linecap:round;}.cls-4,.cls-5{stroke-linejoin:round;}.cls-7{fill:#b2afae;}.cls-8{fill:#948e8d;}.cls-9{fill:#746c6b;}.cls-10{fill:#554a49;}.cls-11{fill:#363133;}.cls-12{fill:#cdcbca;}.cls-13{fill:#dfdedc;}.cls-14{fill:#4ecdc4;}.cls-15{stroke:#4ecdc4;}</style></defs><title>logo</title><rect class="cls-1" width="200" height="70"/><path d="M9.7,34.92a13.55,13.55,0,0,1,4-9.83A13.15,13.15,0,0,1,23.48,21,20.82,20.82,0,0,1,31,22.82a59.09,59.09,0,0,1,8.92,4.58q4.42,2.75,6.53,4.14t3.38,2.35a1.36,1.36,0,0,1,0,2.07q-1.27,1-3.34,2.39T40,42.56a54.92,54.92,0,0,1-8.92,4.62A21.25,21.25,0,0,1,23.48,49a13.09,13.09,0,0,1-9.75-4.14A13.78,13.78,0,0,1,9.7,34.92Zm37.18,0q-3.19-2.23-6.57-4.38A76.69,76.69,0,0,0,31.72,26q-5.22-2.43-8.24-2.43a10.7,10.7,0,0,0-8,3.34,11.09,11.09,0,0,0-3.26,8,11.33,11.33,0,0,0,3.26,8.16,10.64,10.64,0,0,0,8,3.38q3.11,0,8.32-2.43a72.47,72.47,0,0,0,8.6-4.62Q43.78,37.23,46.89,34.92Z"/><line class="cls-2" x1="46.89" y1="34.96" x2="60.59" y2="35.04"/><circle class="cls-3" cx="60.59" cy="35" r="4.19"/><line class="cls-4" x1="24.18" y1="48" x2="24.18" y2="31.34"/><line class="cls-5" x1="36.08" y1="43.33" x2="36.08" y2="26.67"/><path class="cls-2" d="M12.29,27.23c9.61,5.46,13.31,5.52,23.79,0"/><path class="cls-6" d="M27.5,35.89a30,30,0,0,0,5.28-2"/><path class="cls-6" d="M15.64,34a24.61,24.61,0,0,0,5,1.92"/><path class="cls-6" d="M27.78,40.83a31,31,0,0,0,5-1.91"/><path class="cls-6" d="M15.62,39.05a24.73,24.73,0,0,0,5,1.92"/><polyline class="cls-7" points="151.01 18.95 149.18 17.6 147.36 18.95 148.08 16.76 146.22 15.38 148.5 15.38 149.18 13.26 149.86 15.38 152.14 15.38 150.3 16.76 151.01 18.95"/><polyline class="cls-8" points="157.54 21.57 158.25 19.39 156.4 17.99 158.67 18.01 159.35 15.88 160.03 18 162.31 17.99 160.48 19.38 161.2 21.56 159.37 20.22 157.54 21.57"/><polyline class="cls-9" points="164.07 28.35 164.78 26.16 162.93 24.77 165.2 24.79 165.88 22.65 166.56 24.78 168.84 24.77 167.01 26.16 167.73 28.34 165.9 27 164.07 28.35"/><polyline class="cls-10" points="169.62 34.77 171.9 34.77 170.07 36.15 170.79 38.33 168.96 37 167.14 38.35 167.85 36.16 165.99 34.77 168.26 34.78 168.94 32.65 169.62 34.77"/><polyline class="cls-11" points="164.89 48.12 165.6 45.93 163.74 44.54 166.02 44.55 166.7 42.42 167.38 44.55 169.65 44.54 167.82 45.92 168.54 48.11 166.71 46.77 164.89 48.12"/><polyline class="cls-12" points="140.77 21.57 138.94 20.22 137.11 21.56 137.83 19.38 136 17.99 138.28 18 138.96 15.88 139.64 18.01 141.91 17.99 140.05 19.39 140.77 21.57"/><polyline class="cls-13" points="134.24 28.35 132.41 27 130.58 28.34 131.3 26.16 129.46 24.77 131.75 24.78 132.43 22.65 133.11 24.79 135.38 24.77 133.53 26.16 134.24 28.35"/><path class="cls-14" d="M101.4,34.81a1.8,1.8,0,0,0,1.54-.78,3.36,3.36,0,0,0,.58-2,3.45,3.45,0,0,0-.52-2,1.83,1.83,0,0,0-1.6-.87H97.65v5.65h3.75Zm3,7.38q-2-3.74-2.46-4.44Q100.91,36.2,100,36.2H97.65v6H96.17V27.78h5.23a3.21,3.21,0,0,1,2.68,1.32,5,5,0,0,1,.06,5.72A3.29,3.29,0,0,1,102.51,36a44.65,44.65,0,0,1,3.6,6.17h-1.67Z"/><polygon class="cls-14" points="107.48 27.79 115.41 27.79 115.41 29.18 108.96 29.18 108.96 34.25 114.41 34.25 114.41 35.63 108.96 35.63 108.96 40.8 115.41 40.8 115.41 42.19 107.48 42.19 107.48 27.79 107.48 27.79"/><path class="cls-14" d="M121.4,33.95a7.8,7.8,0,0,1,3.72.83,3.66,3.66,0,0,1,1.41,3.38A3.84,3.84,0,0,1,125,41.32a5.43,5.43,0,0,1-3.44,1.06,6.19,6.19,0,0,1-3.29-.87,3.26,3.26,0,0,1-1.73-2.46l1.48-.17a2,2,0,0,0,1.21,1.47,5,5,0,0,0,2.32.53,4.16,4.16,0,0,0,2.38-.63A2.46,2.46,0,0,0,125,38.14a2.29,2.29,0,0,0-1-2.26,6.85,6.85,0,0,0-2.6-.44q-4.6-.2-4.59-4a3.56,3.56,0,0,1,1.44-2.9,5.1,5.1,0,0,1,3.15-.95,6.21,6.21,0,0,1,2.8.62A3.33,3.33,0,0,1,126,30.1l-1.4.51a2,2,0,0,0-1.17-1.07,4.73,4.73,0,0,0-2-.41,3.74,3.74,0,0,0-2.1.55,2.16,2.16,0,0,0-1,1.84,2.1,2.1,0,0,0,.75,1.8,4.3,4.3,0,0,0,2.36.63h0Z"/><path class="cls-14" d="M134.57,31.34h1.48v8a2.87,2.87,0,0,1-2.85,2.85h-1.69a2.85,2.85,0,0,1-2.84-2.85v-8h1.48v8a1.36,1.36,0,0,0,1.36,1.37h1.69a1.37,1.37,0,0,0,1.37-1.37v-8h0Z"/><polygon class="cls-14" points="148.85 42.19 148.85 32.28 145.07 42.19 144.05 42.19 140.27 32.28 140.27 42.19 138.78 42.19 138.78 27.79 140.03 27.79 144.56 39.59 149.09 27.79 150.34 27.79 150.34 42.19 148.85 42.19 148.85 42.19"/><polygon class="cls-14" points="153.07 27.79 161 27.79 161 29.18 154.55 29.18 154.55 34.25 160 34.25 160 35.63 154.55 35.63 154.55 40.8 161 40.8 161 42.19 153.07 42.19 153.07 27.79 153.07 27.79"/><polyline class="cls-15" points="75.9 22.03 178.08 22.03 178.08 48.03 75.9 48.03"/><line class="cls-15" x1="87.9" y1="48.03" x2="87.9" y2="22.03"/></svg>