<svg id="Layer_1" data-name="Layer 1" xmlns="http://www.w3.org/2000/svg" viewBox="0 0 114.1 70"><defs><style>.cls-1{fill:#fff;}.cls-2{fill:#b2afae;}.cls-3{fill:#948e8d;}.cls-4{fill:#746c6b;}.cls-5{fill:#554a49;}.cls-6{fill:#363133;}.cls-7{fill:#cdcbca;}.cls-8{fill:#dfdedc;}.cls-9{fill:#4ecdc4;}.cls-10{fill:none;stroke:#4ecdc4;stroke-miterlimit:10;stroke-width:2px;}</style></defs><title>logo-01</title><rect class="cls-1" width="114.1" height="70"/><polyline class="cls-2" points="75.11 18.95 73.28 17.6 71.46 18.95 72.18 16.76 70.32 15.38 72.6 15.38 73.28 13.26 73.96 15.38 76.24 15.38 74.4 16.76 75.11 18.95"/><polyline class="cls-3" points="81.64 21.57 82.35 19.39 80.5 17.99 82.77 18.01 83.45 15.88 84.13 18 86.41 17.99 84.58 19.38 85.3 21.56 83.47 20.22 81.64 21.57"/><polyline class="cls-4" points="88.17 28.35 88.88 26.16 87.03 24.77 89.3 24.79 89.98 22.65 90.66 24.78 92.94 24.77 91.11 26.16 91.83 28.34 90 27 88.17 28.35"/><polyline class="cls-5" points="93.72 34.77 96 34.77 94.17 36.15 94.89 38.33 93.06 37 91.24 38.35 91.95 36.16 90.09 34.77 92.36 34.78 93.04 32.65 93.72 34.77"/><polyline class="cls-6" points="88.99 48.12 89.7 45.93 87.84 44.54 90.12 44.55 90.8 42.42 91.48 44.55 93.75 44.54 91.92 45.92 92.64 48.11 90.81 46.77 88.99 48.12"/><polyline class="cls-7" points="64.87 21.57 63.04 20.22 61.21 21.56 61.93 19.38 60.1 17.99 62.38 18 63.06 15.88 63.74 18.01 66.01 17.99 64.15 19.39 64.87 21.57"/><polyline class="cls-8" points="58.34 28.35 56.51 27 54.68 28.34 55.4 26.16 53.56 24.77 55.85 24.78 56.53 22.65 57.21 24.79 59.48 24.77 57.63 26.16 58.34 28.35"/><path class="cls-9" d="M25.5,34.81A1.8,1.8,0,0,0,27,34a3.36,3.36,0,0,0,.58-2,3.45,3.45,0,0,0-.52-2,1.83,1.83,0,0,0-1.6-.87H21.75v5.65H25.5Zm3,7.38q-2-3.74-2.46-4.44Q25,36.2,24.1,36.2H21.75v6H20.27V27.78H25.5a3.21,3.21,0,0,1,2.68,1.32,5,5,0,0,1,.06,5.72A3.29,3.29,0,0,1,26.61,36a44.65,44.65,0,0,1,3.6,6.17H28.54Z" transform="translate(0 0)"/><polygon class="cls-9" points="31.58 27.79 39.51 27.79 39.51 29.18 33.06 29.18 33.06 34.25 38.51 34.25 38.51 35.63 33.06 35.63 33.06 40.8 39.51 40.8 39.51 42.19 31.58 42.19 31.58 27.79 31.58 27.79"/><path class="cls-9" d="M45.5,33.95a7.8,7.8,0,0,1,3.72.83,3.66,3.66,0,0,1,1.41,3.38,3.84,3.84,0,0,1-1.53,3.16,5.43,5.43,0,0,1-3.44,1.06,6.19,6.19,0,0,1-3.29-.87A3.26,3.26,0,0,1,40.64,39l1.48-.17a2,2,0,0,0,1.21,1.47,5,5,0,0,0,2.32.53A4.16,4.16,0,0,0,48,40.25a2.46,2.46,0,0,0,1.07-2.11,2.29,2.29,0,0,0-1-2.26,6.85,6.85,0,0,0-2.6-.44q-4.6-.2-4.59-4a3.56,3.56,0,0,1,1.44-2.9,5.1,5.1,0,0,1,3.15-1,6.21,6.21,0,0,1,2.8.62,3.33,3.33,0,0,1,1.8,1.89l-1.4.51a2,2,0,0,0-1.17-1.07,4.73,4.73,0,0,0-2-.41,3.74,3.74,0,0,0-2.1.55,2.16,2.16,0,0,0-1,1.84,2.1,2.1,0,0,0,.75,1.8,4.3,4.3,0,0,0,2.36.63h0Z" transform="translate(0 0)"/><path class="cls-9" d="M58.67,31.34h1.48v8a2.87,2.87,0,0,1-2.85,2.85H55.61a2.85,2.85,0,0,1-2.84-2.85v-8h1.48v8a1.36,1.36,0,0,0,1.35,1.37h1.7a1.37,1.37,0,0,0,1.37-1.37v-8h0Z" transform="translate(0 0)"/><polygon class="cls-9" points="72.95 42.19 72.95 32.28 69.17 42.19 68.15 42.19 64.37 32.28 64.37 42.19 62.88 42.19 62.88 27.79 64.13 27.79 68.66 39.59 73.19 27.79 74.44 27.79 74.44 42.19 72.95 42.19 72.95 42.19"/><polygon class="cls-9" points="77.17 27.79 85.1 27.79 85.1 29.18 78.65 29.18 78.65 34.25 84.1 34.25 84.1 35.63 78.65 35.63 78.65 40.8 85.1 40.8 85.1 42.19 77.17 42.19 77.17 27.79 77.17 27.79"/><polyline class="cls-10" points="0 22.03 102.18 22.03 102.18 48.03 0 48.03"/><line class="cls-10" x1="12" y1="48.03" x2="12" y2="22.03"/></svg>